<svg width="70" height="70" viewBox="0 0 70 70" fill="none" xmlns="http://www.w3.org/2000/svg">
<path d="M7.58114 60.9736C7.7818 61.0278 7.99497 60.9978 8.17446 60.8901C8.35395 60.7825 8.48529 60.6057 8.54001 60.3983C10.1538 54.1527 16.7123 52.534 20.6324 51.5654C21.6148 51.3232 22.3903 51.1314 22.8948 50.9055C27.3602 48.8952 28.8157 45.661 29.2513 43.3013C29.2772 43.1609 29.2669 43.0159 29.2215 42.8809C29.1761 42.7459 29.0972 42.6258 28.9928 42.5325C26.6677 40.4507 24.706 37.3254 23.4683 33.7305C23.4334 33.6274 23.3784 33.5328 23.3069 33.4526C21.6696 31.6064 20.7296 29.6545 20.7296 28.0992C20.7296 27.1908 21.0601 26.5813 21.8044 26.1214C21.9158 26.0523 22.009 25.9555 22.0755 25.8397C22.1419 25.724 22.1796 25.5929 22.1851 25.4583C22.5314 17.1796 28.2156 10.6626 35.1878 10.6203L35.3554 10.6317C42.3621 10.7325 48.0103 17.3892 48.2124 25.785C48.2153 25.8997 48.2416 26.0125 48.2897 26.1159C48.3378 26.2193 48.4065 26.3109 48.4913 26.3847C48.9817 26.8153 49.2105 27.3614 49.2105 28.1025C49.2105 29.4043 48.5415 31.0051 47.3288 32.6075C47.271 32.6846 47.2265 32.7715 47.1972 32.8643C45.9437 36.9858 43.6938 40.6246 41.0272 42.8511C40.9167 42.9436 40.8325 43.0655 40.7834 43.2037C40.7343 43.3419 40.7221 43.4913 40.7483 43.6361C41.1839 45.9942 42.6394 49.2267 47.1047 51.2403C47.6327 51.4776 48.4522 51.6629 49.4909 51.8953C53.3718 52.7664 59.8661 54.2274 61.4596 60.3983C61.4863 60.5013 61.5324 60.598 61.5951 60.6826C61.6578 60.7672 61.736 60.8382 61.8252 60.8914C61.9144 60.9447 62.0128 60.9792 62.1149 60.9931C62.2169 61.0069 62.3206 60.9997 62.42 60.972C62.5194 60.9442 62.6125 60.8964 62.6941 60.8314C62.7757 60.7663 62.8441 60.6852 62.8954 60.5927C62.9468 60.5001 62.9801 60.398 62.9934 60.2922C63.0067 60.1863 62.9998 60.0788 62.9731 59.9757C61.1321 52.846 53.7745 51.1932 49.8231 50.3058C48.9065 50.0994 48.1153 49.9223 47.7299 49.7468C44.8157 48.4336 43.0201 46.433 42.3856 43.7904C45.0914 41.3803 47.3554 37.6619 48.6496 33.4916C50.0236 31.6389 50.7788 29.7309 50.7788 28.1009C50.7788 27.0136 50.4404 26.1068 49.7698 25.3982C49.3969 16.2906 43.1314 9.11864 35.3554 9.00325L35.122 9C27.4871 9.04225 21.1949 16.0257 20.645 24.9756C19.6641 25.7232 19.1659 26.7715 19.1659 28.1025C19.1659 30.0251 20.2141 32.3247 22.0488 34.4342C23.3163 38.047 25.2811 41.221 27.6203 43.4427C26.9888 46.095 25.1917 48.1021 22.2713 49.4169C21.8937 49.5875 21.1416 49.7744 20.2705 49.9889C16.2893 50.9705 8.88157 52.7989 7.0265 59.979C6.97293 60.1872 7.00126 60.4089 7.10527 60.5954C7.20928 60.7819 7.38046 60.918 7.58114 60.9736Z" fill="black"/>
</svg>
